<svg xmlns="http://www.w3.org/2000/svg" viewBox="0 0 133 133"><path fill="#606076" d="M26.308 86.327a2 2 0 0 1-2-2v-3a2 2 0 0 1 4 0v3a2 2 0 0 1-2 2zm46.348 26.22h-5.862a2 2 0 0 1 0-4h5.862a2 2 0 0 1 0 4zm-11.724 0H55.07a2 2 0 0 1 0-4h5.86a2 2 0 0 1 0 4zm-11.724 0h-5.862a2 2 0 0 1 0-4h5.862a2 2 0 0 1 0 4zm-11.724 0h-5.862a2 2 0 0 1 0-4h5.862a2 2 0 0 1 0 4zM26.86 109.69a2 2 0 0 1-1.789-1.101 7.213 7.213 0 0 1-.764-3.228v-3.447a2 2 0 0 1 4 0v3.447c0 .504.113.984.337 1.429a2 2 0 0 1-1.784 2.9zm-.553-11.638a2 2 0 0 1-2-2V90.19a2 2 0 0 1 4 0v5.862a2 2 0 0 1-2 2zm55.225 14.495h-3a2 2 0 0 1 0-4h3a2 2 0 0 1 0 4zm20.958-56.515a2 2 0 0 1-2-2v-3a2 2 0 0 1 4 0v3a2 2 0 0 1-2 2zm0-8.862a2 2 0 0 1-2-2v-5.863a2 2 0 0 1 4 0v5.863a2 2 0 0 1-2 2zm0-11.724a2 2 0 0 1-2-2v-3.448c0-.504-.113-.984-.336-1.428a2 2 0 1 1 3.572-1.8c.5.993.764 2.11.764 3.228v3.448a2 2 0 0 1-2 2zm-5.313-8.634h-5.862a2 2 0 0 1 0-4h5.862a2 2 0 0 1 0 4zm-11.725 0h-5.861a2 2 0 0 1 0-4h5.861a2 2 0 0 1 0 4zm-11.723 0h-5.863a2 2 0 0 1 0-4h5.863a2 2 0 0 1 0 4zm-11.725 0h-5.862a2 2 0 0 1 0-4h5.862a2 2 0 0 1 0 4zm-11.74 0h-3a2 2 0 0 1 0-4h3a2 2 0 0 1 0 4z"/><path fill="#53aff4" d="M62.612 70.528c0 9.268-13.438 16.77-30.02 16.77S2.565 79.796 2.565 70.528V55.855h59.958l.089 14.673z"/><path fill="#6dbcf7" d="M62.612 56.06c0 9.261-13.438 16.77-30.02 16.77S2.565 65.32 2.565 56.06 16.01 39.29 32.592 39.29s30.02 7.509 30.02 16.77z"/><path fill="#ffd67e" d="M32.592 64.896c-13.489 0-22.092-5.802-22.092-8.836s8.603-8.835 22.092-8.835c13.485 0 22.086 5.801 22.086 8.835s-8.6 8.836-22.086 8.836z"/><path fill="#53aff4" d="M62.612 52.197c0 9.268-13.438 16.77-30.02 16.77S2.565 61.464 2.565 52.196V37.523h59.958l.089 14.674z"/><path fill="#6dbcf7" d="M62.612 37.729c0 9.261-13.438 16.77-30.02 16.77S2.565 46.99 2.565 37.729s13.445-16.77 30.027-16.77 30.02 7.509 30.02 16.77z"/><path fill="#ffd67e" d="M32.592 46.565c-13.489 0-22.092-5.802-22.092-8.836s8.603-8.836 22.092-8.836c13.485 0 22.086 5.802 22.086 8.836s-8.6 8.836-22.086 8.836z"/><path fill="#53aff4" d="M62.612 33.865c0 9.269-13.438 16.77-30.02 16.77S2.565 43.134 2.565 33.865V19.192h59.958l.089 14.673z"/><path fill="#6dbcf7" d="M62.612 19.398c0 9.26-13.438 16.77-30.02 16.77s-30.027-7.51-30.027-16.77c0-9.262 13.445-16.77 30.027-16.77s30.02 7.508 30.02 16.77z"/><path fill="#86cff8" d="M32.592 28.233c-13.489 0-22.092-5.802-22.092-8.835s8.603-8.836 22.092-8.836c13.485 0 22.086 5.802 22.086 8.836s-8.6 8.835-22.086 8.835z"/><path fill="#e4686a" d="M11.6 38.183c-.681.891-2.083.962-3.125.166-1.047-.806-1.325-2.182-.643-3.073.69-.896 2.093-.967 3.132-.163 1.04.803 1.328 2.174.637 3.07z"/><path fill="#606076" d="M53.824 38.488c.682.892 2.084.963 3.126.166 1.047-.806 1.325-2.182.643-3.073-.69-.895-2.093-.966-3.132-.163-1.04.803-1.328 2.175-.637 3.07zm-6.317 3.862c.682.891 2.083.962 3.126.166 1.046-.806 1.325-2.182.643-3.073-.691-.896-2.093-.967-3.133-.164-1.04.804-1.328 2.175-.636 3.07zm-7.71 1.421c.682.892 2.084.963 3.126.166 1.047-.806 1.326-2.182.643-3.073-.69-.895-2.093-.966-3.132-.163-1.04.803-1.328 2.175-.637 3.07zM53.824 57.27c.682.89 2.084.961 3.126.165 1.047-.806 1.325-2.182.643-3.073-.69-.896-2.093-.966-3.132-.163-1.04.803-1.328 2.175-.637 3.07zm-6.317 3.86c.682.892 2.083.963 3.126.166 1.046-.805 1.325-2.181.643-3.073-.691-.895-2.093-.966-3.133-.163-1.04.804-1.328 2.175-.636 3.07zm-7.71 1.422c.682.892 2.084.962 3.126.166 1.047-.806 1.326-2.182.643-3.073-.69-.896-2.093-.966-3.132-.163-1.04.803-1.328 2.175-.637 3.07zM53.824 76.05c.682.891 2.084.962 3.126.166 1.047-.806 1.325-2.182.643-3.073-.69-.896-2.093-.967-3.132-.163-1.04.803-1.328 2.174-.637 3.07zm-6.317 3.862c.682.89 2.083.962 3.126.165 1.046-.806 1.325-2.182.643-3.073-.691-.895-2.093-.966-3.133-.163-1.04.803-1.328 2.175-.636 3.07zm-7.71 1.421c.682.891 2.084.962 3.126.166 1.047-.806 1.326-2.182.643-3.073-.69-.896-2.093-.967-3.132-.163-1.04.803-1.328 2.174-.637 3.07z"/><path fill="#e4686a" d="M11.6 57.308c-.681.891-2.083.962-3.125.166-1.047-.806-1.325-2.182-.643-3.073.69-.896 2.093-.967 3.132-.163 1.04.803 1.328 2.174.637 3.07zM11.6 75.53c-.681.89-2.083.961-3.125.165-1.047-.806-1.325-2.182-.643-3.073.69-.896 2.093-.966 3.132-.163 1.04.803 1.328 2.175.637 3.07z"/><path fill="#ffb749" d="M130.435 113.602c0 9.269-13.438 16.77-30.02 16.77s-30.027-7.501-30.027-16.77V98.93h59.958l.089 14.673z"/><path fill="#ffc863" d="M130.435 99.135c0 9.26-13.438 16.77-30.02 16.77s-30.027-7.51-30.027-16.77c0-9.262 13.445-16.77 30.027-16.77s30.02 7.508 30.02 16.77z"/><path fill="#ffd67e" d="M100.415 107.97c-13.49 0-22.093-5.802-22.093-8.835s8.604-8.836 22.093-8.836c13.485 0 22.086 5.802 22.086 8.836s-8.601 8.835-22.086 8.835z"/><path fill="#ffb749" d="M130.435 95.271c0 9.269-13.438 16.77-30.02 16.77s-30.027-7.501-30.027-16.77V80.598h59.958l.089 14.673z"/><path fill="#ffc863" d="M130.435 80.803c0 9.262-13.438 16.77-30.02 16.77s-30.027-7.508-30.027-16.77c0-9.26 13.445-16.77 30.027-16.77s30.02 7.51 30.02 16.77z"/><path fill="#ffd67e" d="M100.415 89.639c-13.49 0-22.093-5.802-22.093-8.836s8.604-8.835 22.093-8.835c13.485 0 22.086 5.802 22.086 8.835s-8.601 8.836-22.086 8.836z"/><path fill="#ffb749" d="M130.435 76.94c0 9.268-13.438 16.77-30.02 16.77s-30.027-7.502-30.027-16.77V62.266h59.958l.089 14.674z"/><path fill="#ffc863" d="M130.435 62.472c0 9.261-13.438 16.77-30.02 16.77s-30.027-7.509-30.027-16.77 13.445-16.77 30.027-16.77 30.02 7.509 30.02 16.77z"/><path fill="#ffd67e" d="M100.415 71.308c-13.49 0-22.093-5.802-22.093-8.836s8.604-8.836 22.093-8.836c13.485 0 22.086 5.802 22.086 8.836s-8.601 8.836-22.086 8.836z"/><path fill="#e4686a" d="M79.424 81.257c-.682.892-2.084.963-3.126.166-1.047-.806-1.326-2.182-.644-3.073.692-.895 2.094-.966 3.133-.163 1.04.803 1.328 2.175.637 3.07z"/><path fill="#606076" d="M121.647 81.563c.682.891 2.084.962 3.126.165 1.046-.805 1.325-2.181.643-3.072-.691-.896-2.093-.967-3.132-.164-1.04.804-1.328 2.175-.637 3.07zm-6.318 3.861c.682.892 2.084.962 3.126.166 1.047-.806 1.326-2.182.644-3.073-.692-.896-2.093-.966-3.133-.163-1.04.803-1.328 2.175-.637 3.07zm-7.709 1.422c.682.891 2.084.962 3.126.165 1.046-.805 1.325-2.181.643-3.072-.69-.896-2.093-.967-3.132-.164-1.04.804-1.328 2.175-.637 3.07zM121.647 100.344c.682.89 2.084.962 3.126.165 1.046-.805 1.325-2.181.643-3.073-.691-.895-2.093-.966-3.132-.163-1.04.803-1.328 2.175-.637 3.07zm-6.318 3.861c.682.891 2.084.962 3.126.166 1.047-.806 1.326-2.182.644-3.073-.692-.896-2.093-.967-3.133-.163-1.04.803-1.328 2.174-.637 3.07zm-7.709 1.422c.682.89 2.084.962 3.126.165 1.046-.805 1.325-2.181.643-3.073-.69-.895-2.093-.966-3.132-.163-1.04.803-1.328 2.175-.637 3.07zM121.647 119.124c.682.892 2.084.963 3.126.166 1.046-.806 1.325-2.182.643-3.073-.691-.895-2.093-.966-3.132-.163-1.04.803-1.328 2.175-.637 3.07zm-6.318 3.862c.682.891 2.084.962 3.126.165 1.047-.805 1.326-2.181.644-3.072-.692-.896-2.093-.967-3.133-.164-1.04.804-1.328 2.175-.637 3.07zm-7.709 1.421c.682.892 2.084.963 3.126.166 1.046-.806 1.325-2.182.643-3.073-.69-.895-2.093-.966-3.132-.163-1.04.803-1.328 2.175-.637 3.07z"/><path fill="#e4686a" d="M79.424 100.382c-.682.892-2.084.962-3.126.166-1.047-.806-1.326-2.182-.644-3.073.692-.896 2.094-.966 3.133-.163 1.04.803 1.328 2.175.637 3.07zM79.424 118.604c-.682.89-2.084.962-3.126.165-1.047-.805-1.326-2.181-.644-3.073.692-.895 2.094-.966 3.133-.163 1.04.804 1.328 2.175.637 3.07z"/></svg>